<?xml version="1.0" encoding="UTF-8"?><svg id="Layer_2" xmlns="http://www.w3.org/2000/svg" viewBox="0 0 104.88 104.88"><defs><style>.cls-1{fill:#c8e1bf;}.cls-2{fill:#105025;}.cls-3{fill:#5a7f4e;}.cls-4{fill:#85a97c;}.cls-5{fill:#fff;}.cls-6{fill:#056734;}.cls-7{fill:#f0803e;}.cls-8{fill:#015028;}</style></defs><g id="Layer_1-2"><rect class="cls-8" width="104.88" height="104.88"/><path class="cls-1" d="M18.26,76.77c-2.26-.68-4.66-.83-6.98-1.22-.97-.16-1.95-.35-2.92-.6-.55,1.6-.93,3.38-.07,4.15.08.07,1.55.36,1.66.36.89,4.98-2.61,8.96-4.1,10.72-.47.55-.1,1.39.62,1.43,1.17.05,2.22,0,3.5-.46,2.17-.79,3.68-1.65,5.29-3.33,1.1-1.16,2.45-2.72,3.16-6.1-.12-1.24,1.2-.86,1.42-.95,1.34.29,2.76.56,4.24.76-1.12-2.41-3.29-4-5.83-4.76Z"/><path class="cls-1" d="M23.74,64.21c3.52.9,7.1,1.58,10.69,2.15-3.31-3.33-6.75-6.54-10-9.91-.75-.78-1.53-1.54-2.35-2.26l-.35-.31c-.52.68-1.06,1.4-1.63,2.19-1.55,2.14-2.67,3.86-3.68,5.67,2.32,1.11,4.85,1.83,7.33,2.46Z"/><path class="cls-1" d="M45.54,78.4c-.6-1.03-1.23-2.04-2.01-2.96-1.91-2.26-3.99-4.37-6.15-6.41-4.76-.64-9.51-1.47-14.13-2.68-1.9-.5-3.87-1.06-5.69-1.86-.51.88-1.02,1.81-1.55,2.85,2.8.59,5.66.9,8.43,1.67,1.55.43,3.38,1.02,4.21,2.43,1.33.26,2.65.58,3.91,1.08,1.88.74,1.01,2.22,1.21,4.16.11,1.02,2.14,1.73,2.24,2.74.06.62.25,1.18.56,1.7,2.95-.25,6.07-.89,9.33-2.13-.12-.19-.25-.38-.36-.58Z"/><path class="cls-1" d="M13.95,68.33c.17-.34.34-.68.51-1-1.34-.28-2.66-.62-3.95-1.11-.89-.34-1.85-.71-2.81-1.14-.61,1.24-1.32,2.45-1.82,3.75-.14.36-.34.84-.55,1.37,1.75.46,3.57.7,5.36.95,2.54.36,5.12.74,7.34,2.11,1.92,1.18,3.13,2.82,3.84,4.68,1.95.22,4.02.3,6.17.18-.3-.7-.44-1.44-.48-2.22-.06-1.14.11-2.3-.09-3.43-.07-.39-.21-.74-.39-1.05-2.81-.55-5.73-.77-8.49-1.48-1.57-.4-3.16-.97-4.66-1.63Z"/><polygon class="cls-7" points="88.29 22.19 10.76 34.08 10.1 34.21 9.71 35.45 62.5 89.63 62.94 90.06 64.08 89.8 88.88 23.72 89.08 23.13 88.29 22.19"/><path class="cls-4" d="M99.12,23.42c.16-.17.29-4.87-2.07-6.67-2.39-1.83-12.44-3.46-19.29,10.98-.81,1.7-3.3,2.21-5.12,2.8-5.13,1.67-11.06,1.81-16.54,3.42-1.35.4-3.26.92-4.51,1.39-4.07,1.55-7.34,3.8-10.65,6.54-3.65,3.02-5.43,5.24-8.1,9.03-1.48,2.1-2.15,3.27-3.11,5.03l19.52,20.13c13.7-1.74,22.82-12.43,26.52-17.67.06.06.11.13.16.19.51.53,1.13,1,1.83,1.45,2.29,1.47,4.79,4.58,5.64,6.82l3.68,9.65c.35.5,1.26.5,1.59-.02,2.4-3.67,6.43-16.28.61-28.47,0,0-2.01-3.52-6.17-3.91.87-1.71,1.5-2.91,1.5-2.91v-.03c1-2.9,1.42-5.55,4.05-6.75,3.22-1.46,5.64-3.29,7.38-5.21.3-.33.04-.87-.41-.85-1.91.1-4.54-.07-4.74-.57-.41-1.03,4.27-.22,8.21-4.36Z"/><path class="cls-3" d="M74.27,52.69c-.1-.79-.3-1.22-.65-1.46-1.4,5.93-4.89,13.29-12.01,20.29,0,0,6.45-3.55,9.97-7.54,1.26-1.43,2.84-3.43,4.34-5.4-.65-.67-1.13-1.43-1.34-2.38l-.32-3.51Z"/><path class="cls-5" d="M78.09,27.07c-1.08,3.35-7.37,21.5-20.56,34.92-4.32,4.39-8.65,7.43-12.75,9.52l1.58,1.63c5.14-2.02,10.8-5.45,16.44-11.18,13.95-14.19,15.48-34,15.52-35.47-.01.09-.08.3-.23.59Z"/><path class="cls-2" d="M58.09,31.91c-15.16.52-25.64,8.96-31.61,20.74l18.3,18.86c4.1-2.09,8.43-5.13,12.75-9.52,13.19-13.42,19.47-31.56,20.56-34.91.11-.36.17-.55.17-.55,0,0-4.65,4.85-20.17,5.38Z"/><path class="cls-6" d="M35.7,43.29s8.02-11.07,25.52-9.81c1.58.11,3.16.07,4.73-.18,3.16-.49,8.12-1.49,9.77-3.15,0,0-8.07,13.98-21.56,15.26-11.41,1.09-18.47-2.13-18.47-2.13Z"/></g></svg>