<?xml version="1.0" encoding="UTF-8"?><svg id="Layer_2" xmlns="http://www.w3.org/2000/svg" viewBox="0 0 404.96 208.42"><defs><style>.cls-1{fill:#c8e1bf;}.cls-2{fill:#105025;}.cls-3{fill:#5a7f4e;}.cls-4{fill:#85a97c;}.cls-5{fill:#fff;}.cls-6{fill:#056734;}.cls-7{fill:#f0803e;}</style></defs><g id="Layer_1-2"><path class="cls-6" d="M22.89,208.42c-5.17,0-9.56-.93-13.18-2.8-3.61-1.87-6.85-4.61-9.72-8.22l7.29-7.29c1.81,2.62,3.96,4.66,6.45,6.12,2.49,1.46,5.67,2.2,9.53,2.2,3.61,0,6.49-.75,8.64-2.24,2.15-1.5,3.22-3.55,3.22-6.17,0-2.18-.56-3.96-1.68-5.33-1.12-1.37-2.6-2.51-4.44-3.41-1.84-.9-3.86-1.71-6.07-2.43-2.21-.71-4.42-1.53-6.63-2.43-2.21-.9-4.24-2.04-6.07-3.41-1.84-1.37-3.32-3.14-4.44-5.33-1.12-2.18-1.68-4.95-1.68-8.32,0-3.86.95-7.15,2.85-9.86,1.9-2.71,4.47-4.78,7.71-6.21,3.24-1.43,6.85-2.15,10.84-2.15,4.3,0,8.14.84,11.54,2.52,3.39,1.68,6.15,3.83,8.27,6.45l-7.29,7.29c-1.87-2.12-3.82-3.69-5.84-4.72-2.03-1.03-4.35-1.54-6.96-1.54-3.24,0-5.78.65-7.62,1.96-1.84,1.31-2.76,3.15-2.76,5.51,0,1.99.56,3.6,1.68,4.81,1.12,1.21,2.6,2.24,4.44,3.08,1.84.84,3.86,1.63,6.07,2.38,2.21.75,4.42,1.59,6.63,2.52,2.21.93,4.24,2.13,6.07,3.6,1.84,1.46,3.32,3.35,4.44,5.65,1.12,2.31,1.68,5.2,1.68,8.69,0,5.86-2.07,10.5-6.21,13.92-4.14,3.43-9.73,5.14-16.77,5.14Z"/><path class="cls-6" d="M51.3,171.98v-9.34h31.77v9.34h-31.77ZM62.04,207.49v-63.54h10.28v63.54h-10.28Z"/><path class="cls-6" d="M111.38,208.42c-4.49,0-8.52-1.01-12.1-3.04-3.58-2.02-6.42-4.81-8.5-8.36-2.09-3.55-3.13-7.54-3.13-11.96s1.03-8.39,3.08-11.91,4.84-6.31,8.36-8.36c3.52-2.06,7.43-3.08,11.73-3.08s7.86.97,11.07,2.9c3.21,1.93,5.73,4.58,7.57,7.94,1.84,3.36,2.76,7.2,2.76,11.49,0,.75-.05,1.51-.14,2.29-.09.78-.23,1.64-.42,2.57h-36.82v-8.41h31.49l-3.83,3.36c-.13-2.74-.65-5.05-1.59-6.92s-2.26-3.3-3.97-4.3c-1.71-1-3.82-1.5-6.31-1.5-2.62,0-4.89.56-6.82,1.68-1.93,1.12-3.43,2.69-4.48,4.72-1.06,2.02-1.59,4.44-1.59,7.24s.56,5.27,1.68,7.38c1.12,2.12,2.71,3.75,4.77,4.91,2.06,1.15,4.42,1.73,7.1,1.73,2.3,0,4.44-.4,6.4-1.21,1.96-.81,3.63-1.99,5-3.55l6.54,6.63c-2.18,2.55-4.83,4.49-7.94,5.79-3.12,1.31-6.42,1.96-9.9,1.96Z"/><path class="cls-6" d="M145.67,154.41c-1.74,0-3.19-.59-4.35-1.78-1.15-1.18-1.73-2.65-1.73-4.39s.58-3.21,1.73-4.39c1.15-1.18,2.6-1.78,4.35-1.78s3.27.59,4.39,1.78c1.12,1.18,1.68,2.65,1.68,4.39s-.56,3.21-1.68,4.39c-1.12,1.18-2.59,1.78-4.39,1.78ZM140.53,207.49v-44.85h10.28v44.85h-10.28Z"/><path class="cls-6" d="M162.3,207.49v-44.85h10.28v44.85h-10.28ZM193.04,207.49v-25.88c0-2.99-.95-5.45-2.85-7.38-1.9-1.93-4.35-2.9-7.33-2.9-1.99,0-3.77.44-5.33,1.31-1.56.87-2.77,2.09-3.64,3.64-.87,1.56-1.31,3.33-1.31,5.33l-4.02-2.24c0-3.42.75-6.46,2.24-9.11,1.5-2.65,3.57-4.73,6.21-6.26,2.65-1.53,5.62-2.29,8.92-2.29s6.35.86,8.97,2.57c2.62,1.71,4.67,3.92,6.17,6.63,1.49,2.71,2.24,5.53,2.24,8.46v28.13h-10.28Z"/><path class="cls-6" d="M213.79,207.49v-67.28h10.28v33.45l-1.78,10.84,1.78,10.93v12.05h-10.28ZM237.8,208.42c-3.43,0-6.48-.73-9.16-2.2-2.68-1.46-4.78-3.47-6.31-6.03-1.53-2.55-2.29-5.45-2.29-8.69v-12.9c0-3.24.78-6.13,2.34-8.69,1.56-2.55,3.67-4.56,6.35-6.03,2.68-1.46,5.7-2.2,9.06-2.2,4.05,0,7.71,1.04,10.98,3.13,3.27,2.09,5.85,4.89,7.76,8.41,1.9,3.52,2.85,7.49,2.85,11.91s-.95,8.3-2.85,11.82c-1.9,3.52-4.49,6.31-7.76,8.36-3.27,2.06-6.93,3.08-10.98,3.08ZM236.12,198.7c2.49,0,4.69-.58,6.59-1.73,1.9-1.15,3.39-2.76,4.48-4.81,1.09-2.06,1.64-4.42,1.64-7.1s-.55-5.05-1.64-7.1c-1.09-2.06-2.59-3.66-4.48-4.81-1.9-1.15-4.1-1.73-6.59-1.73s-4.7.58-6.63,1.73c-1.93,1.15-3.43,2.76-4.49,4.81-1.06,2.05-1.59,4.42-1.59,7.1s.53,5.05,1.59,7.1c1.06,2.06,2.55,3.66,4.49,4.81,1.93,1.15,4.14,1.73,6.63,1.73Z"/><path class="cls-6" d="M288.82,208.42c-4.49,0-8.52-1.01-12.1-3.04-3.58-2.02-6.42-4.81-8.5-8.36-2.09-3.55-3.13-7.54-3.13-11.96s1.03-8.39,3.08-11.91,4.84-6.31,8.36-8.36c3.52-2.06,7.43-3.08,11.73-3.08s7.86.97,11.07,2.9c3.21,1.93,5.73,4.58,7.57,7.94,1.84,3.36,2.76,7.2,2.76,11.49,0,.75-.05,1.51-.14,2.29-.09.78-.23,1.64-.42,2.57h-36.82v-8.41h31.49l-3.83,3.36c-.13-2.74-.65-5.05-1.59-6.92s-2.26-3.3-3.97-4.3c-1.71-1-3.82-1.5-6.31-1.5-2.62,0-4.89.56-6.82,1.68-1.93,1.12-3.43,2.69-4.48,4.72-1.06,2.02-1.59,4.44-1.59,7.24s.56,5.27,1.68,7.38c1.12,2.12,2.71,3.75,4.77,4.91,2.06,1.15,4.42,1.73,7.1,1.73,2.3,0,4.44-.4,6.4-1.21,1.96-.81,3.63-1.99,5-3.55l6.54,6.63c-2.18,2.55-4.83,4.49-7.94,5.79-3.12,1.31-6.42,1.96-9.9,1.96Z"/><path class="cls-6" d="M338.53,208.42c-4.42,0-8.43-1.03-12.01-3.08-3.58-2.05-6.4-4.86-8.46-8.41s-3.08-7.51-3.08-11.87,1.03-8.39,3.08-11.91,4.87-6.31,8.46-8.36c3.58-2.06,7.58-3.08,12.01-3.08,3.49,0,6.74.67,9.76,2.01,3.02,1.34,5.59,3.26,7.71,5.75l-6.73,6.82c-1.31-1.56-2.88-2.72-4.72-3.5-1.84-.78-3.85-1.17-6.03-1.17-2.56,0-4.81.58-6.77,1.73-1.96,1.15-3.49,2.73-4.58,4.72-1.09,2-1.64,4.33-1.64,7.01s.54,4.94,1.64,6.96c1.09,2.02,2.62,3.61,4.58,4.77s4.22,1.73,6.77,1.73c2.18,0,4.19-.39,6.03-1.17,1.84-.78,3.41-1.95,4.72-3.5l6.73,6.82c-2.12,2.49-4.69,4.41-7.71,5.75-3.02,1.34-6.28,2.01-9.76,2.01Z"/><path class="cls-6" d="M363.38,207.49v-67.28h10.28v67.28h-10.28ZM391.88,207.49l-18.97-22.89,18.88-21.96h12.24l-21.68,24.67.47-5.89,22.15,26.07h-13.08Z"/><path class="cls-1" d="M182.34,113.17c-4.18-1.26-8.61-1.54-12.9-2.25-1.79-.29-3.61-.64-5.4-1.11-1.01,2.95-1.72,6.24-.13,7.68.15.13,2.87.67,3.07.67,1.64,9.21-4.82,16.57-7.58,19.82-.87,1.02-.19,2.58,1.15,2.64,2.17.1,4.11,0,6.48-.85,4.01-1.46,6.81-3.05,9.78-6.16,2.04-2.14,4.53-5.03,5.85-11.28-.22-2.3,2.22-1.59,2.63-1.75,2.48.54,5.1,1.03,7.84,1.41-2.07-4.45-6.08-7.4-10.77-8.81Z"/><path class="cls-1" d="M192.48,89.93c6.51,1.67,13.13,2.91,19.76,3.98-6.12-6.16-12.49-12.09-18.5-18.32-1.4-1.45-2.84-2.85-4.34-4.18l-.65-.57c-.96,1.25-1.95,2.58-3.02,4.05-2.87,3.96-4.94,7.15-6.81,10.48,4.3,2.05,8.97,3.38,13.56,4.55Z"/><path class="cls-1" d="M232.78,116.17c-1.11-1.9-2.28-3.77-3.72-5.47-3.52-4.18-7.38-8.08-11.37-11.86-8.81-1.19-17.59-2.72-26.12-4.96-3.52-.92-7.16-1.95-10.51-3.44-.95,1.64-1.88,3.35-2.86,5.27,5.18,1.09,10.47,1.67,15.59,3.09,2.86.79,6.24,1.9,7.78,4.49,2.47.48,4.9,1.08,7.23,1.99,3.48,1.36,1.86,4.1,2.24,7.7.2,1.88,3.96,3.19,4.14,5.07.11,1.15.47,2.18,1.03,3.14,5.45-.47,11.22-1.65,17.26-3.94-.22-.36-.45-.71-.67-1.08Z"/><path class="cls-1" d="M174.37,97.55c.32-.64.63-1.25.94-1.84-2.47-.52-4.92-1.14-7.3-2.05-1.64-.62-3.42-1.31-5.19-2.11-1.12,2.29-2.44,4.52-3.36,6.93-.25.66-.62,1.55-1.01,2.54,3.24.86,6.61,1.29,9.92,1.76,4.7.67,9.46,1.37,13.58,3.9,3.55,2.18,5.79,5.21,7.1,8.65,3.61.4,7.43.56,11.42.33-.55-1.29-.82-2.66-.89-4.1-.11-2.1.21-4.26-.17-6.34-.13-.73-.38-1.37-.72-1.94-5.2-1.01-10.59-1.43-15.69-2.73-2.91-.74-5.84-1.78-8.61-3.01Z"/><polygon class="cls-7" points="311.85 12.23 168.47 34.22 167.25 34.46 166.53 36.74 264.15 136.95 264.96 137.73 267.08 137.25 312.93 15.06 313.3 13.96 311.85 12.23"/><path class="cls-4" d="M331.87,14.51c.3-.31.53-9.01-3.83-12.34-4.42-3.38-23.01-6.4-35.67,20.31-1.49,3.14-6.11,4.08-9.47,5.18-9.48,3.09-20.45,3.34-30.6,6.32-2.49.73-6.03,1.7-8.34,2.57-7.53,2.86-13.56,7.02-19.69,12.09-6.75,5.59-10.05,9.69-14.99,16.71-2.73,3.88-3.97,6.04-5.75,9.29l36.1,37.22c25.34-3.22,42.19-22.99,49.04-32.69.1.12.2.24.3.35.95.98,2.1,1.85,3.38,2.67,4.23,2.71,8.85,8.47,10.44,12.62l6.81,17.85c.65.93,2.33.92,2.95-.03,4.44-6.78,11.89-30.11,1.12-52.66,0,0-3.72-6.5-11.41-7.23,1.61-3.16,2.77-5.39,2.78-5.38v-.05c1.85-5.36,2.62-10.27,7.49-12.48,5.96-2.71,10.43-6.08,13.65-9.63.56-.62.08-1.61-.75-1.57-3.53.19-8.4-.13-8.77-1.06-.76-1.9,7.9-.41,15.19-8.07Z"/><path class="cls-3" d="M285.92,68.64c-.19-1.45-.55-2.26-1.2-2.7-2.59,10.96-9.04,24.58-22.21,37.52,0,0,11.92-6.57,18.44-13.94,2.34-2.64,5.25-6.34,8.03-9.99-1.2-1.23-2.08-2.65-2.48-4.41l-.59-6.48Z"/><path class="cls-5" d="M292.98,21.26c-2.01,6.2-13.63,39.75-38.02,64.57-7.98,8.12-15.99,13.74-23.58,17.6l2.93,3.02c9.51-3.73,19.98-10.08,30.4-20.68,25.79-26.24,28.63-62.87,28.71-65.59-.02.16-.14.55-.43,1.09Z"/><path class="cls-2" d="M256,30.19c-28.03.96-47.41,16.57-58.46,38.36l33.84,34.87c7.59-3.86,15.6-9.48,23.58-17.6,24.38-24.81,36.01-58.36,38.02-64.57.21-.66.32-1.01.32-1.01,0,0-8.61,8.97-37.3,9.95Z"/><path class="cls-6" d="M214.6,51.25s14.83-20.46,47.2-18.15c2.92.21,5.85.12,8.75-.32,5.84-.9,15.01-2.75,18.08-5.82,0,0-14.93,25.85-39.87,28.23-21.1,2.01-34.16-3.93-34.16-3.93Z"/></g></svg>