<?xml version="1.0" encoding="UTF-8"?><svg id="Layer_2" xmlns="http://www.w3.org/2000/svg" viewBox="0 0 116.75 94.61"><defs><style>.cls-1{fill:#c8e1bf;}.cls-2{fill:#105025;}.cls-3{fill:#5a7f4e;}.cls-4{fill:#85a97c;}.cls-5{fill:#fff;}.cls-6{fill:#056734;}.cls-7{fill:#f0803e;}</style></defs><g id="Layer_1-2"><path class="cls-1" d="M16.07,76.13c-2.81-.85-5.79-1.04-8.68-1.51-1.2-.2-2.43-.43-3.63-.75-.68,1.99-1.15,4.2-.09,5.16.1.09,1.93.45,2.06.45,1.11,6.19-3.24,11.15-5.1,13.33-.58.69-.13,1.73.77,1.77,1.46.07,2.77,0,4.36-.57,2.7-.98,4.58-2.05,6.58-4.14,1.37-1.44,3.05-3.38,3.93-7.58-.15-1.55,1.49-1.07,1.77-1.18,1.67.36,3.43.69,5.28.95-1.39-3-4.09-4.98-7.25-5.93Z"/><path class="cls-1" d="M22.9,60.5c4.38,1.12,8.83,1.96,13.29,2.68-4.12-4.14-8.4-8.13-12.44-12.32-.94-.97-1.91-1.92-2.92-2.81l-.44-.38c-.65.84-1.31,1.74-2.03,2.73-1.93,2.67-3.32,4.81-4.58,7.05,2.89,1.38,6.03,2.27,9.12,3.06Z"/><path class="cls-1" d="M50.01,78.15c-.75-1.28-1.54-2.54-2.5-3.68-2.37-2.81-4.96-5.44-7.65-7.98-5.93-.8-11.83-1.83-17.57-3.34-2.36-.62-4.82-1.31-7.07-2.31-.64,1.1-1.26,2.26-1.93,3.54,3.48.73,7.04,1.12,10.49,2.08,1.92.53,4.2,1.27,5.23,3.02,1.66.32,3.29.73,4.86,1.34,2.34.92,1.25,2.76,1.51,5.18.13,1.26,2.67,2.15,2.78,3.41.07.77.32,1.46.69,2.11,3.67-.32,7.55-1.11,11.61-2.65-.15-.24-.31-.48-.45-.72Z"/><path class="cls-1" d="M10.71,65.62c.22-.43.43-.84.63-1.24-1.66-.35-3.31-.77-4.91-1.38-1.1-.42-2.3-.88-3.49-1.42-.76,1.54-1.64,3.04-2.26,4.66-.17.45-.42,1.04-.68,1.71,2.18.58,4.45.87,6.67,1.18,3.16.45,6.36.92,9.13,2.62,2.39,1.47,3.9,3.5,4.77,5.82,2.43.27,5,.38,7.68.22-.37-.87-.55-1.79-.6-2.76-.07-1.41.14-2.86-.11-4.26-.09-.49-.26-.92-.49-1.3-3.5-.68-7.12-.96-10.56-1.84-1.96-.5-3.93-1.2-5.79-2.02Z"/><polygon class="cls-7" points="103.19 8.23 6.74 23.02 5.93 23.18 5.44 24.72 71.11 92.12 71.65 92.65 73.08 92.33 103.92 10.13 104.17 9.39 103.19 8.23"/><path class="cls-4" d="M116.66,9.76c.2-.21.35-6.06-2.58-8.3-2.97-2.27-15.48-4.3-24,13.66-1,2.11-4.11,2.75-6.37,3.48-6.38,2.08-13.76,2.25-20.58,4.25-1.68.49-4.06,1.14-5.61,1.73-5.06,1.93-9.12,4.72-13.24,8.13-4.54,3.76-6.76,6.52-10.08,11.24-1.84,2.61-2.67,4.07-3.87,6.25l24.29,25.04c17.05-2.17,28.38-15.46,32.99-21.99.07.08.13.16.2.24.64.66,1.41,1.25,2.27,1.8,2.85,1.82,5.95,5.69,7.02,8.49l4.58,12.01c.44.63,1.57.62,1.98-.02,2.99-4.56,8-20.26.75-35.42,0,0-2.5-4.38-7.67-4.86,1.08-2.12,1.86-3.62,1.87-3.62v-.03c1.25-3.61,1.76-6.91,5.04-8.4,4.01-1.82,7.02-4.09,9.18-6.48.38-.42.05-1.09-.51-1.06-2.37.13-5.65-.09-5.9-.71-.51-1.28,5.31-.28,10.22-5.43Z"/><path class="cls-3" d="M85.75,46.17c-.13-.98-.37-1.52-.8-1.81-1.74,7.38-6.08,16.53-14.94,25.24,0,0,8.02-4.42,12.41-9.38,1.57-1.78,3.53-4.26,5.4-6.72-.81-.83-1.4-1.78-1.67-2.96l-.4-4.36Z"/><path class="cls-5" d="M90.5,14.3c-1.35,4.17-9.17,26.74-25.57,43.43-5.37,5.46-10.76,9.24-15.86,11.84l1.97,2.03c6.4-2.51,13.44-6.78,20.45-13.91,17.35-17.65,19.26-42.29,19.31-44.12-.02.11-.1.37-.29.73Z"/><path class="cls-2" d="M65.63,20.31c-18.85.65-31.89,11.14-39.33,25.8l22.77,23.46c5.1-2.6,10.49-6.38,15.86-11.84,16.4-16.69,24.23-39.26,25.57-43.43.14-.44.21-.68.21-.68,0,0-5.79,6.03-25.09,6.69Z"/><path class="cls-6" d="M37.78,34.47s9.98-13.77,31.75-12.21c1.96.14,3.94.08,5.88-.22,3.93-.61,10.09-1.85,12.16-3.91,0,0-10.04,17.39-26.82,18.99-14.19,1.35-22.98-2.65-22.98-2.65Z"/></g></svg>